Coordinates
version=1
nRows=65
nColumns=12
inDegrees=yes

Units are S.I. units (second, meters, Newtons, ...)
Angles are in degrees

endheader
time	SC_y	SC_z	SC_x	AC_y	AC_z	AC_x	GH_y	GH_z	GH_yy	EL_x	PS_y
       0.0              -27.65          16.35          30.95           53.6          8.192          14.23         -53.37          62.64         -118.0           78.4           11.7
  0.009533              -27.65          16.35          30.95           53.6          8.193          14.23         -53.37          62.64         -117.9           78.4          11.71
   0.01907              -27.65          16.35          30.96           53.6          8.193          14.23         -53.38          62.64         -117.9           78.4          11.73
    0.0286              -27.65          16.36          30.97           53.6          8.193          14.23         -53.38          62.64         -117.8           78.4          11.75
   0.03813              -27.65          16.36          30.98          53.59          8.193          14.23         -53.39          62.65         -117.8           78.4          11.76
   0.04767              -27.65          16.36          30.99          53.59          8.194          14.23          -53.4          62.65         -117.8           78.4          11.78
    0.0572              -27.64          16.37           31.0          53.59          8.194          14.23         -53.41          62.65         -117.7          78.41           11.8
   0.06673              -27.64          16.37          31.01          53.59          8.194          14.23         -53.42          62.65         -117.6          78.41          11.82
   0.07627              -27.64          16.37          31.03          53.58          8.195          14.23         -53.43          62.65         -117.6          78.41          11.84
    0.0858              -27.64          16.38          31.04          53.58          8.195          14.23         -53.44          62.65         -117.5          78.41          11.87
   0.09533              -27.64          16.38          31.05          53.58          8.196          14.23         -53.45          62.65         -117.5          78.41          11.89
    0.1049              -27.63          16.39          31.07          53.58          8.196          14.23         -53.46          62.66         -117.4          78.41          11.92
    0.1144              -27.63          16.39          31.08          53.57          8.197          14.23         -53.47          62.66         -117.3          78.42          11.95
    0.1239              -27.63           16.4           31.1          53.57          8.197          14.24         -53.48          62.66         -117.2          78.42          11.98
    0.1335              -27.62          16.41          31.12          53.57          8.198          14.24          -53.5          62.66         -117.1          78.42          12.02
     0.143              -27.62          16.41          31.14          53.56          8.198          14.24         -53.51          62.67         -117.0          78.43          12.06
    0.1525              -27.62          16.42          31.16          53.56          8.199          14.24         -53.53          62.67         -116.9          78.43           12.1
    0.1621              -27.61          16.43          31.19          53.55            8.2          14.24         -53.55          62.67         -116.8          78.43          12.14
    0.1716              -27.61          16.44          31.22          53.55          8.201          14.24         -53.57          62.67         -116.7          78.44          12.19
    0.1811               -27.6          16.45          31.25          53.54          8.202          14.24         -53.59          62.68         -116.5          78.44          12.24
    0.1907               -27.6          16.46          31.28          53.53          8.203          14.24         -53.62          62.68         -116.4          78.44           12.3
    0.2002              -27.59          16.47          31.31          53.53          8.204          14.24         -53.65          62.69         -116.2          78.45          12.37
    0.2097              -27.58          16.48          31.35          53.52          8.205          14.24         -53.68          62.69         -116.0          78.45          12.44
    0.2193              -27.57           16.5           31.4          53.51          8.206          14.24         -53.71           62.7         -115.8          78.46          12.52
    0.2288              -27.57          16.51          31.44           53.5          8.208          14.24         -53.75           62.7         -115.6          78.47           12.6
    0.2383              -27.56          16.53           31.5          53.49           8.21          14.24         -53.79          62.71         -115.3          78.47           12.7
    0.2479              -27.55          16.55          31.56          53.48          8.211          14.25         -53.83          62.72         -115.0          78.48          12.81
    0.2574              -27.53          16.57          31.63          53.47          8.214          14.25         -53.88          62.72         -114.7          78.49          12.93
    0.2669              -27.52           16.6           31.7          53.45          8.216          14.25         -53.94          62.73         -114.4           78.5          13.07
    0.2765              -27.51          16.63          31.79          53.43          8.219          14.25         -54.01          62.74         -113.9          78.52          13.23
     0.286              -27.49          16.66          31.89          53.41          8.222          14.25         -54.09          62.75         -113.5          78.53          13.41
    0.2955              -27.47           16.7          32.01          53.39          8.225          14.26         -54.17          62.77         -112.9          78.55          13.62
    0.3051              -27.44          16.74          32.14          53.37           8.23          14.26         -54.27          62.78         -112.3          78.56          13.86
    0.3146              -27.42           16.8          32.29          53.34          8.234          14.26         -54.39           62.8         -111.6          78.59          14.14
    0.3241              -27.39          16.86          32.47           53.3           8.24          14.27         -54.53          62.82         -110.7          78.61          14.46
    0.3337              -27.35          16.93          32.68          53.26          8.247          14.27         -54.69          62.85         -109.7          78.64          14.85
    0.3432               -27.3          17.01          32.93          53.21          8.255          14.28         -54.88          62.88         -108.5          78.68           15.3
    0.3527              -27.25          17.11          33.24          53.15          8.264          14.29         -55.11          62.92         -107.1          78.72          15.85
    0.3623              -27.19          17.23           33.6          53.08          8.275          14.29         -55.39          62.96         -105.3          78.77          16.51
    0.3718              -27.11          17.38          34.05          52.99          8.289           14.3         -55.73          63.01         -103.2          78.83          17.32
    0.3813              -27.01          17.56           34.6          52.88          8.307          14.32         -56.15          63.08         -100.6          78.91          18.31
    0.3909              -26.89          17.79          35.28          52.75          8.328          14.33         -56.67          63.16         -97.32           79.0          19.56
    0.4004              -26.74          18.08          36.15          52.58          8.355          14.35         -57.33          63.26         -93.21          79.12          21.12
    0.4099              -26.54          18.44          37.24          52.36           8.39          14.38         -58.17           63.4         -87.98          79.28          23.11
    0.4195               -26.3          18.91          38.65          52.08          8.434          14.41         -59.24          63.56         -81.28          79.48          25.66
     0.429              -25.98          19.51          40.45          51.73           8.49          14.46         -60.62          63.78         -72.69          79.73          28.93
    0.4385              -25.57          20.28          42.76          51.27          8.563          14.51         -62.37          64.05         -61.72          80.05          33.11
    0.4481              -25.06          21.24          45.65           50.7          8.653          14.58         -64.58           64.4         -47.92          80.45          38.36
    0.4576              -24.44          22.41          49.18          50.01          8.764          14.66         -67.28          64.82         -31.11          80.95          44.75
    0.4671              -23.72          23.77          53.28           49.2          8.892          14.76          -70.4          65.31         -11.62          81.52          52.17
    0.4767              -22.94          25.25          57.71          48.33          9.031          14.86         -73.78          65.84          9.486          82.14           60.2
    0.4862              -22.16          26.72          62.14          47.45           9.17          14.97         -77.16          66.37          30.59          82.76          68.23
    0.4957              -21.44          28.08          66.23          46.65          9.299          15.07         -80.28          66.86          50.08          83.33          75.65
    0.5053              -20.82          29.26          69.76          45.95          9.409          15.15         -82.97          67.28          66.89          83.83          82.05
    0.5148               -20.3          30.22          72.66          45.38            9.5          15.22         -85.18          67.63          80.69          84.23           87.3
    0.5243               -19.9          30.99          74.96          44.92          9.572          15.27         -86.94          67.91          91.66          84.55          91.47
    0.5339              -19.58          31.59          76.77          44.57          9.629          15.31         -88.31          68.12          100.3          84.81          94.74
    0.5434              -19.33          32.05          78.17          44.29          9.673          15.35         -89.39          68.29          106.9           85.0          97.29
    0.5529              -19.14          32.42          79.27          44.08          9.707          15.37         -90.22          68.42          112.2          85.16          99.28
    0.5625              -18.99          32.71          80.13          43.91          9.735          15.39         -90.88          68.52          116.3          85.28          100.8
     0.572              -18.87          32.93          80.82          43.77          9.756          15.41         -91.41          68.61          119.6          85.37          102.1
    0.5815              -18.77          33.12          81.37          43.66          9.773          15.42         -91.83          68.67          122.2          85.45          103.1
    0.5911              -18.69          33.26          81.82          43.57          9.787          15.43         -92.17          68.73          124.3          85.51          103.9
    0.6006              -18.63          33.39          82.18           43.5          9.799          15.44         -92.44          68.77          126.0          85.56          104.6
    0.6101              -18.57          33.49          82.48          43.44          9.808          15.45         -92.67          68.81          127.5          85.61          105.1
